<svg width="300" height="300" viewBox="0 0 300 300" fill="none" xmlns="http://www.w3.org/2000/svg">
<path d="M267.299 93.8326L299.991 211.076L150.108 299.991L0 210.916L34.8639 93.8326C17.9659 85.9961 6.27281 68.9575 6.27281 49.2235C6.28178 22.0546 28.4206 0 55.7374 0H60.2154V0.0357015C71.6393 0.0714031 83.0541 4.31989 92.073 11.9957C99.0548 17.9132 103.928 25.2856 106.395 33.3185H194.394C199.536 17.8686 213.464 4.91789 229.931 1.36558C233.234 0.598001 236.509 0.169582 239.785 0.0357015V0H244.263C271.579 0 293.718 22.0546 293.718 49.2235C293.718 68.9843 284.197 86.0229 267.299 93.8326Z" fill="#FF9B50"/>
<path d="M97.5114 77.2847L125.627 77.0884L84.7684 136.728C80.2186 135.309 75.8931 133.55 71.792 131.435L97.5024 77.2937L97.5114 77.2847Z" fill="white"/>
<path d="M199.968 77.0885L229.061 77.2849L188.014 137.005C183.07 135.782 178.349 134.14 173.862 132.069L199.959 77.0796L199.968 77.0885Z" fill="white"/>
<path d="M133.686 197.09V232.854C153.258 233.997 173.234 228.758 188.858 218.038C207.012 205.775 217.987 188.076 220.724 166.905H197.491C189.971 196.635 161.379 206.489 133.677 197.082L133.686 197.09Z" fill="black"/>
<path d="M148.241 185.318C148.842 185.344 149.434 185.362 150 185.362C150.565 185.362 151.157 185.344 151.794 185.318C167.651 184.523 184.729 172.483 184.729 147.929V146.242H115.279V147.929C115.279 172.465 132.321 184.505 148.169 185.318H148.25H148.241Z" fill="black"/>
<path d="M84.7773 136.728C88.6362 137.728 92.6026 138.334 96.5243 138.522H96.6409C97.6191 138.575 98.5793 138.602 99.5036 138.602C100.428 138.602 101.388 138.575 102.339 138.531H102.42C122.432 137.549 139.519 126.776 148.672 109.863H151.58C156.336 118.69 163.273 125.901 171.951 130.953L173.871 132.069L199.967 77.0796H125.636L84.7773 136.719V136.728Z" fill="black"/>
<path d="M267.299 93.8326C284.197 86.0228 293.718 68.9843 293.718 49.2235C293.718 22.0546 271.579 0 244.263 0H239.785V0.0357015C236.509 0.169582 233.243 0.598001 229.931 1.36558C213.464 4.91789 199.545 17.8686 194.394 33.3185H106.395C103.928 25.2767 99.0458 17.9043 92.073 11.9957C83.0541 4.31988 71.6303 0.0624777 60.2154 0.0357015V0H55.7374C28.4206 0 6.28178 22.0546 6.28178 49.2235C6.28178 68.9575 17.9659 85.9961 34.8729 93.8326L0 210.916L150.117 300L300 211.085L267.308 93.8415L267.299 93.8326ZM150.144 261.103L35.0613 202.312L53.8618 118.413H56.2309C60.1077 123.161 64.7472 127.187 70.0598 130.373L71.8008 131.435L97.5112 77.2938H59.2731C47.1493 77.2938 37.2958 67.2974 37.2958 55.2035C37.2958 43.1096 47.1493 33.3185 59.2731 33.3185C59.7039 33.3185 60.1436 33.3542 60.5384 33.3809C63.5088 33.4791 66.5151 34.2467 69.3509 35.6748C73.6584 37.7633 77.0685 41.387 79.1056 45.7069C80.5055 48.563 81.2773 51.8208 81.2773 55.2035C81.2773 56.2031 81.2145 57.1671 81.0799 58.0953V59.2913H219.109C218.839 57.9614 218.705 56.6048 218.705 55.2035C218.705 44.8411 225.983 36.1389 235.701 33.9165H235.737C237.344 33.5505 238.977 33.3185 240.718 33.3185C252.878 33.3185 262.695 43.1185 262.695 55.2035C262.695 67.2885 252.878 77.2938 240.718 77.2938H229.061L188.014 137.014C191.217 137.745 194.529 138.174 197.795 138.343H197.894C198.863 138.415 199.832 138.415 200.73 138.415C201.627 138.415 202.596 138.415 203.673 138.343C220.509 137.513 235.567 129.606 245.286 116.789H247.628L265.19 202.285L150.144 261.112V261.103Z" fill="black"/>
</svg>
